# xmcd
#
# Track frame offsets: 
#        165
#        16436
#        33549
#        49582
#        65551
#        83084
#        102682
#        118186
#        135807
#        153687
#        173196
#        187039
#
# Disc length: 2694 seconds
#
# Revision: 0
# Processed by: cddbd v1.5.2PL0 Copyright (c) Steve Scherf et al.
# Submitted via: ExactAudioCopy v0.99pb5
#
DISCID=a40a840c
DTITLE=77 Bombay Street - Up In The Sky
DYEAR=2012
DGENRE=Folk/Rock
TTITLE0=47 Millionaires
TTITLE1=Up In The Sky
TTITLE2=Forgotten Your Name
TTITLE3=Long Way
TTITLE4=Miss You Girl
TTITLE5=It's Now
TTITLE6=I Love Lady Gaga
TTITLE7=In The War
TTITLE8=Hero
TTITLE9=Waiting For Tomorrow
TTITLE10=Number 2
TTITLE11=Get Away
EXTD=
EXTT0=
EXTT1=
EXTT2=
EXTT3=
EXTT4=
EXTT5=
EXTT6=
EXTT7=
EXTT8=
EXTT9=
EXTT10=
EXTT11=
PLAYORDER=
